<?xml version="1.0" encoding="UTF-8"?><svg id="a" xmlns="http://www.w3.org/2000/svg" viewBox="0 0 1024 1024"><path d="m1024,344.4v484.1c0,107.9-87.5,195.5-195.5,195.5H195.5c-107.9,0-195.5-87.5-195.5-195.5V195.5C0,87.5,87.5,0,195.5,0h484.1" fill="#f8fafc" stroke-width="0"/><path d="m875,344.4h149L679.6,0v149c0,107.9,87.5,195.5,195.5,195.5Z" fill="#334155" stroke-width="0"/><line x1="143.7" y1="211" x2="565.9" y2="211" fill="none" stroke="#94a3b8" stroke-linecap="round" stroke-miterlimit="10" stroke-width="40"/><line x1="143.7" y1="359.3" x2="435.2" y2="359.3" fill="none" stroke="#94a3b8" stroke-linecap="round" stroke-miterlimit="10" stroke-width="40"/><line x1="143.7" y1="655.9" x2="435.2" y2="655.9" fill="none" stroke="#94a3b8" stroke-linecap="round" stroke-miterlimit="10" stroke-width="40"/><line x1="143.7" y1="804.3" x2="529.1" y2="804.3" fill="none" stroke="#94a3b8" stroke-linecap="round" stroke-miterlimit="10" stroke-width="40"/><line x1="143.7" y1="507.6" x2="844.7" y2="507.6" fill="none" stroke="#94a3b8" stroke-linecap="round" stroke-miterlimit="10" stroke-width="40"/><circle cx="780.7" cy="723.2" r="132.9" fill="#3b82f6" stroke-width="0"/><line x1="695.8" y1="723.6" x2="759.5" y2="787.4" fill="none" stroke="#f8fafc" stroke-linecap="round" stroke-miterlimit="10" stroke-width="40"/><line x1="865.6" y1="682.2" x2="760.4" y2="787.4" fill="none" stroke="#f8fafc" stroke-linecap="round" stroke-miterlimit="10" stroke-width="40"/></svg>